<svg width="80" height="15" viewBox="0 0 80 15" fill="none" xmlns="http://www.w3.org/2000/svg">
<g id="Header_logo" clip-path="url(#clip0_0_24)">
<path id="Vector" fill-rule="evenodd" clip-rule="evenodd" d="M20.0831 0C18.8347 0 17.8226 1.01207 17.8226 2.26052C17.8226 2.43531 17.9643 2.577 18.1391 2.577H19.0485C19.2647 2.577 19.44 2.40172 19.44 2.1855C19.44 1.87662 19.6903 1.62622 19.9992 1.62622H36.755C40.1465 1.62622 42.8958 4.37554 42.8958 7.76699C42.8958 11.1584 40.1465 13.9078 36.755 13.9078H19.9992C19.6903 13.9078 19.44 13.6574 19.44 13.3485C19.44 13.1323 19.2647 12.957 19.0485 12.957H18.1391C17.9643 12.957 17.8226 13.0987 17.8226 13.2735C17.8226 14.5219 18.8346 15.534 20.0831 15.534H74.3475C77.4693 15.534 80 13.0033 80 9.88152V5.65249C80 2.53071 77.4693 0 74.3475 0H20.0831Z" fill="#39408F"/>
<path id="Vector_2" fill-rule="evenodd" clip-rule="evenodd" d="M15.7622 10.2899C15.5829 10.0984 15.5829 9.85042 15.5829 9.64749V7.06618H16.7712V5.88269H15.5829V4.12417L14.0694 4.19177L13.9125 5.88269H13.0156V7.06618H13.9125V9.69268C13.9125 10.2449 13.89 10.8086 14.316 11.2594C14.6861 11.6539 15.2466 11.7441 15.6613 11.7441C16.02 11.7441 16.5134 11.6989 16.8947 11.6426V10.4027C16.7152 10.4253 16.4462 10.4591 16.2779 10.4591C16.0986 10.4591 15.9081 10.4365 15.7622 10.2899V10.2899Z" fill="white"/>
<path id="Vector_3" fill-rule="evenodd" clip-rule="evenodd" d="M17.8095 11.6317H19.4797V3.89915H17.8095V11.6317Z" fill="white"/>
<path id="Vector_4" fill-rule="evenodd" clip-rule="evenodd" d="M4.13557 6.98195C3.40939 6.79722 2.19132 6.64802 2.19132 5.9142C2.19132 5.59754 2.38186 5.12357 3.28099 5.12357C4.50877 5.12357 4.79867 6.0014 4.79867 6.11749H6.3263C6.3263 5.71442 6.03423 3.7672 3.37052 3.7672C1.28124 3.7672 0.392848 4.90822 0.392848 6.13975C0.392848 7.81187 1.93537 8.19773 2.83637 8.43404C3.70776 8.66204 4.6972 8.82972 4.6972 9.54114C4.6972 9.79027 4.56192 10.3885 3.4382 10.3885C2.12252 10.3885 1.77124 9.45952 1.7376 9.17978H0C0.106676 10.4349 1.10376 11.7445 3.38269 11.7445C4.30399 11.7445 5.0903 11.5186 5.65329 11.0782C6.07964 10.7385 6.56261 10.1509 6.56261 9.24748C6.56261 7.6184 4.9554 7.19065 4.13557 6.98195Z" fill="white"/>
<path id="Vector_5" fill-rule="evenodd" clip-rule="evenodd" d="M8.83233 8.12837C8.83233 7.7297 9.00617 6.8853 9.95853 6.8853C10.9118 6.8853 11.0378 7.84769 11.0378 8.12837H8.83233ZM9.93619 5.75541C9.43032 5.75541 8.71207 5.83496 8.048 6.39964C7.59864 6.78362 7.03719 7.49578 7.03719 8.76145C7.03719 9.84574 7.46371 10.5468 7.85709 10.9423C8.284 11.3713 8.98138 11.7442 9.92571 11.7442C12.0442 11.7442 12.5886 10.1446 12.669 9.72182H11.1277C11.0596 10.0329 10.7552 10.6144 10.0037 10.6144C9.12275 10.6144 8.83233 9.84703 8.83233 9.08835H12.7574V8.79561C12.7574 7.82342 12.4432 7.13446 12.0947 6.71613C11.7124 6.25255 11.0266 5.75543 9.93619 5.75543V5.75541Z" fill="white"/>
<path id="Vector_6" fill-rule="evenodd" clip-rule="evenodd" d="M24.3901 6.98195C23.6639 6.79722 22.4459 6.64802 22.4459 5.9142C22.4459 5.59754 22.6365 5.12357 23.5355 5.12357C24.7633 5.12357 25.0531 6.0014 25.0531 6.11749H26.5809C26.5809 5.71442 26.2888 3.7672 23.6249 3.7672C21.5357 3.7672 20.6473 4.90822 20.6473 6.13975C20.6474 7.81187 22.1899 8.19773 23.0909 8.43404C23.9623 8.66204 24.9518 8.82972 24.9518 9.54114C24.9518 9.79027 24.8165 10.3885 23.6927 10.3885C22.377 10.3885 22.0258 9.45952 21.9921 9.17978H20.2545C20.3612 10.4349 21.3581 11.7445 23.6372 11.7445C24.5585 11.7445 25.3449 11.5186 25.9078 11.0782C26.3342 10.7385 26.8171 10.1509 26.8171 9.24748C26.8172 7.6184 25.21 7.19065 24.3901 6.98195Z" fill="white"/>
<path id="Vector_7" fill-rule="evenodd" clip-rule="evenodd" d="M31.0337 10.1537C30.8208 10.5256 30.5068 10.6384 30.2043 10.6384C29.9016 10.6384 29.5877 10.5256 29.3747 10.1537C29.2403 9.91709 29.117 9.54522 29.117 8.76759C29.117 8.3393 29.1394 7.78712 29.4084 7.37018C29.599 7.06583 29.8456 6.9193 30.2043 6.9193C30.5629 6.9193 30.8094 7.06583 31.0001 7.37018C31.2691 7.7871 31.2915 8.3393 31.2915 8.76759C31.2916 9.54522 31.1681 9.91713 31.0337 10.1537ZM30.2043 5.79239C29.6439 5.79239 28.8816 5.92765 28.2203 6.58128C27.9513 6.85176 27.3684 7.56175 27.3684 8.76759C27.3684 9.6917 27.7271 10.5144 28.2651 11.0328C28.6574 11.4047 29.2964 11.7653 30.2043 11.7653C31.1121 11.7653 31.751 11.4047 32.1433 11.0328C32.6814 10.5144 33.04 9.6917 33.04 8.76759C33.04 7.56177 32.4572 6.85177 32.1882 6.58128C31.5269 5.92765 30.7647 5.79239 30.2043 5.79239Z" fill="white"/>
<path id="Vector_8" fill-rule="evenodd" clip-rule="evenodd" d="M34.5265 4.21472C34.0558 4.66553 34.0222 5.35294 34.0222 5.83759V5.9615H33.1366V7.14481H34.0222V11.6302H35.6922V7.14481H36.9588V5.9615H35.6922V5.81497C35.6922 5.58962 35.6922 5.31916 35.8715 5.13883C36.0061 5.00365 36.2302 4.94725 36.4768 4.94725C36.5553 4.94725 36.7794 4.94725 37.2389 5.03742V3.92174C36.6674 3.79771 36.0508 3.78648 35.8941 3.78648C35.6249 3.78648 34.9636 3.80898 34.5265 4.21473V4.21472Z" fill="white"/>
<path id="Vector_9" fill-rule="evenodd" clip-rule="evenodd" d="M40.5576 10.4582C40.3782 10.4582 40.1877 10.4357 40.0419 10.2891C39.8626 10.0976 39.8625 9.84962 39.8625 9.64677L39.8626 7.06597H41.0506V5.88266H39.8626V4.12464L38.3494 4.19219L38.1925 5.88266H37.2959V7.06597H38.1925V9.6919C38.1925 10.2441 38.17 10.8076 38.596 11.2584C38.9659 11.6527 39.5263 11.7429 39.9411 11.7429C40.2997 11.7429 40.793 11.6979 41.174 11.6415V10.4018C40.9947 10.4244 40.7257 10.4582 40.5576 10.4582H40.5576Z" fill="white"/>
<path id="Vector_10" fill-rule="evenodd" clip-rule="evenodd" d="M47.1304 11.6303H45.3367V3.89773H47.1304V11.6303Z" fill="white"/>
<path id="Vector_11" fill-rule="evenodd" clip-rule="evenodd" d="M53.1734 6.73822C53.1509 6.43379 53.0724 6.09573 52.9155 5.81396C52.6577 5.34046 52.3215 5.13758 51.7943 5.13758C51.2002 5.13758 50.808 5.41939 50.5276 6.02803C50.3257 6.47885 50.2585 6.99739 50.2585 7.73023C50.2585 8.50789 50.3257 9.06029 50.5276 9.48869C50.864 10.2325 51.402 10.3903 51.7832 10.3903C52.1531 10.3903 52.5456 10.2664 52.8484 9.83795C53.0613 9.53375 53.1734 9.10536 53.2071 8.8009L54.855 8.95873C54.7654 9.82675 54.3618 10.4919 53.9469 10.8977C53.521 11.3146 52.837 11.743 51.7832 11.743C50.1464 11.743 49.272 10.7849 48.8907 10.1198C48.5097 9.45484 48.3302 8.53054 48.3302 7.75265C48.3302 6.43379 48.79 5.34046 49.4401 4.68677C50.2586 3.8638 51.2115 3.7849 51.7943 3.7849C52.3886 3.7849 53.2856 3.92029 53.9806 4.60787C54.1153 4.74305 54.7654 5.41939 54.855 6.60307L53.1734 6.73822H53.1734Z" fill="white"/>
<path id="Vector_12" fill-rule="evenodd" clip-rule="evenodd" d="M57.9374 5.81392C57.7915 6.05066 57.5339 6.59162 57.5339 7.74143C57.5339 8.89123 57.7805 9.4434 57.9374 9.70277C58.1504 10.0523 58.5204 10.3903 59.0696 10.3903C59.6191 10.3903 59.9889 10.0523 60.202 9.70277C60.359 9.44342 60.6056 8.89125 60.6056 7.74143C60.6056 6.59162 60.3476 6.05066 60.202 5.81396C59.877 5.29542 59.4846 5.13758 59.0696 5.13758C58.6549 5.13758 58.2625 5.29541 57.9374 5.81392ZM61.3006 4.574C61.9844 5.19386 62.5338 6.27597 62.5338 7.76405C62.5338 9.07149 62.108 10.1874 61.3791 10.875C60.9418 11.2922 60.1907 11.743 59.0696 11.743C57.9485 11.743 57.1974 11.2922 56.7601 10.875C56.0314 10.1874 55.6053 9.07149 55.6053 7.76405C55.6053 6.27597 56.1547 5.19386 56.8386 4.574C57.5786 3.90886 58.4306 3.7849 59.0696 3.7849C59.7087 3.7849 60.5607 3.90887 61.3006 4.574H61.3006Z" fill="white"/>
<path id="Vector_13" fill-rule="evenodd" clip-rule="evenodd" d="M68.5995 9.00383H68.6218C68.5321 8.63195 68.4985 8.23737 68.4985 8.01209V3.89773H69.9783V11.6303H68.4314L65.4267 6.55783L65.1126 5.92677H65.0905C65.2249 6.49037 65.2137 6.76074 65.2137 7.05395L65.2137 11.6303H63.7339V3.89773H65.5725L68.5994 9.00384L68.5995 9.00383Z" fill="white"/>
<path id="Vector_14" fill-rule="evenodd" clip-rule="evenodd" d="M73.9808 5.67882L73.1399 8.49674H74.8215L73.9808 5.67882ZM77.5682 11.6303H75.696L75.1578 9.80419H72.8035L72.2655 11.6303H70.7631L73.1848 3.89773H75.1241L77.5682 11.6303Z" fill="white"/>
</g>
<defs>
<clipPath id="clip0_0_24">
<rect width="80" height="15" fill="white"/>
</clipPath>
</defs>
</svg>
